HIERARCHY
ROOT hip
{
	OFFSET 0.000000 0.000000 0.000000 
	CHANNELS 6 Xposition Yposition Zposition Xrotation Zrotation Yrotation
	JOINT abdomen
	{
		OFFSET 0.000000 3.402643 0.000000 
		CHANNELS 3 Xrotation Zrotation Yrotation
		JOINT chest
		{
			OFFSET 0.000000 8.438565 -0.680529 
			CHANNELS 3 Xrotation Zrotation Yrotation
			JOINT neck
			{
				OFFSET 0.000000 10.207942 -0.272212 
				CHANNELS 3 Xrotation Zrotation Yrotation
				JOINT head
				{
					OFFSET 0.000000 3.130431 0.000000 
					CHANNELS 3 Xrotation Zrotation Yrotation
					End Site
					{
						OFFSET 0.000000 3.130435 0.000000 
					}
				}
			}
			JOINT lCollar
			{
				OFFSET 3.470700 6.669187 -0.816635 
				CHANNELS 3 Yrotation Zrotation Xrotation
				JOINT lShldr
				{
					OFFSET 3.198488 0.000000 0.000000 
					CHANNELS 3 Zrotation Yrotation Xrotation
					JOINT lForeArm
					{
						OFFSET 10.139888 0.000000 0.000000 
						CHANNELS 3 Yrotation Zrotation Xrotation
						JOINT lHand
						{
							OFFSET 8.370511 0.000000 0.000000 
							CHANNELS 3 Zrotation Yrotation Xrotation
							End Site
							{
								OFFSET 4.083176 0.000000 0.000000 
							}
						}
					}
				}
			}
			JOINT rCollar
			{
				OFFSET -3.470700 6.669187 -0.816635 
				CHANNELS 3 Yrotation Zrotation Xrotation
				JOINT rShldr
				{
					OFFSET -3.198488 0.000000 0.000000 
					CHANNELS 3 Zrotation Yrotation Xrotation
					JOINT rForeArm
					{
						OFFSET -10.139888 0.000000 0.000000 
						CHANNELS 3 Yrotation Zrotation Xrotation
						JOINT rHand
						{
							OFFSET -8.370511 0.000000 0.000000 
							CHANNELS 3 Zrotation Yrotation Xrotation
							End Site
							{
								OFFSET -4.083176 0.000000 0.000000 
							}
						}
					}
				}
			}
		}
	}
	JOINT lThigh
	{
		OFFSET 5.308129 -1.633274 1.361059 
		CHANNELS 3 Xrotation Zrotation Yrotation
		JOINT lShin
		{
			OFFSET -2.041588 -20.007561 0.000000 
			CHANNELS 3 Xrotation Zrotation Yrotation
			JOINT lFoot
			{
				OFFSET 0.000000 -19.190928 -1.224953 
				CHANNELS 3 Xrotation Yrotation Zrotation
				End Site
				{
					OFFSET 0.000000 -2.449906 4.627600 
				}
			}
		}
	}
	JOINT rThigh
	{
		OFFSET -5.308129 -1.633274 1.361059 
		CHANNELS 3 Xrotation Zrotation Yrotation
		JOINT rShin
		{
			OFFSET 2.041588 -20.007561 0.000000 
			CHANNELS 3 Xrotation Zrotation Yrotation
			JOINT rFoot
			{
				OFFSET 0.000000 -19.190928 -1.224953 
				CHANNELS 3 Xrotation Yrotation Zrotation
				End Site
				{
					OFFSET 0.000000 -2.449906 4.627600 
				}
			}
		}
	}
}
MOTION
Frames: 9
Frame Time: 0.033333
-0.790783 53.160320 1.038610 -40.751953 34.140625 -154.580078 60.592876 -10.751153 -6.426887 -18.144533 -3.359375 0.458984 51.063168 8.107644 2.471410 -59.580082 -13.623046 -10.478518 2.000000 -2.000000 0.000000 5.390625 -58.867188 -37.138676 -70.431541 -0.939418 -2.406356 66.614059 33.963802 25.865097 -2.000000 2.000000 0.000000 37.031246 -29.326172 13.330079 102.183952 -0.533120 -2.990545 -74.978340 -64.177994 54.256893 -50.116169 16.454258 25.262320 -3.773641 -5.175147 0.143665 6.734935 -0.249172 -9.250215 -79.746918 -4.025240 11.133123 101.013939 -1.934955 4.638463 1.703612 17.098690 15.980293 
-0.835493 53.105171 1.505786 -41.152344 33.984379 -154.619141 60.887634 -11.426285 -5.826618 -18.154297 -3.535156 0.780648 51.063168 8.107644 2.471410 -59.726563 -13.261718 -12.258101 2.000000 -2.000000 0.000000 7.597656 -60.283203 -38.037109 -70.438667 -1.100946 -2.660975 67.131332 34.119488 26.312721 -2.000000 2.000000 0.000000 37.685543 -29.550779 11.982423 102.183952 -0.533120 -2.990545 -75.304649 -64.483063 54.645061 -50.409405 15.878250 25.079279 -3.778423 -5.160460 0.123358 6.716170 -0.255196 -9.283299 -80.170059 -4.580981 11.733999 101.044518 -1.768896 4.519086 1.526593 17.343361 15.961073 
-0.743798 53.113052 1.462368 -40.751953 34.140625 -154.580078 60.898575 -11.337536 -5.980914 -18.154297 -3.535156 0.780648 51.063168 8.107644 2.471410 -59.726563 -13.261718 -11.906538 2.000000 -2.000000 0.000000 5.751953 -59.316402 -36.834568 -70.262871 -1.110696 -2.660408 66.675949 34.153152 26.047985 -2.000000 2.000000 0.000000 38.974609 -31.513670 12.846459 101.666939 -0.492995 -3.007780 -75.354721 -62.978661 54.267941 -49.944084 16.281904 25.211523 -3.772507 -5.165674 0.104136 7.094408 -0.569604 -9.439139 -79.935631 -4.209830 11.089020 101.037796 -1.778770 4.688440 1.663421 17.075249 15.999873 
-0.652105 53.089413 1.418962 -40.371090 34.277344 -154.555054 60.864876 -11.263336 -5.815560 -18.154299 -3.701171 0.742187 51.063168 8.107644 2.471410 -59.912109 -13.242188 -11.513672 2.000000 -2.000000 0.000000 4.785156 -58.710934 -36.210938 -70.086792 -1.139377 -2.648960 66.748535 34.088631 26.218168 -2.000000 2.000000 0.000000 40.820316 -33.417969 13.139153 101.139618 -0.463747 -3.006088 -74.498413 -61.648651 53.001411 -49.378616 16.409885 25.392397 -5.179688 -5.108272 0.266413 6.941482 -0.577931 -9.222761 -79.520287 -4.003718 10.412849 101.019150 -2.108911 4.578675 1.695491 16.878592 15.646049 
-0.602090 53.128815 0.747580 -39.609375 34.589848 -154.691727 60.444996 -10.410791 -6.721011 -18.154299 -3.876953 0.371094 51.063168 8.107644 2.471410 -59.970707 -13.749999 -8.779297 2.000000 -2.000000 0.000000 1.914063 -56.025391 -35.506145 -69.914764 -1.391590 -2.781200 66.785049 34.472340 26.351147 -2.000000 2.000000 0.000000 41.748051 -35.136719 15.961177 100.436501 -0.434499 -3.004396 -74.674950 -59.288891 53.075958 -48.218830 17.554337 25.972017 -6.591856 -5.271291 0.347321 7.750819 -1.064129 -9.147829 -78.942459 -3.115421 10.042744 100.352081 -1.700434 4.551858 2.035552 16.924814 15.431439 
-0.552075 53.136677 0.076200 -38.896484 35.029297 -155.072525 60.039692 -9.463420 -7.798717 -18.154299 -4.052734 -0.195312 51.063168 8.107644 2.471410 -60.039063 -14.277343 -6.240235 2.000000 -2.000000 0.000000 -1.445313 -53.437500 -34.384762 -69.746246 -1.229949 -2.692793 66.545540 34.576626 26.648582 -2.000000 2.000000 0.000000 42.392578 -37.041016 18.646461 99.738113 -0.229929 -3.158752 -74.253761 -57.141968 52.358086 -46.911278 18.375639 26.361650 -7.649160 -5.253997 0.464208 8.267593 -0.859303 -9.229728 -78.100815 -2.344474 8.640609 100.137680 -2.013011 4.467427 2.389315 16.351498 14.523189 
-0.483237 53.168190 -0.708727 -38.125004 35.312496 -155.097656 59.430958 -8.259726 -9.005164 -18.339846 -4.228516 -0.742188 51.063168 8.107644 2.471410 -60.302734 -14.941404 -2.548828 2.000000 -2.000000 0.000000 -5.732421 -49.804688 -33.630508 -69.218086 -1.228252 -2.663347 66.634956 34.542389 26.851982 -2.000000 2.000000 0.000000 41.953125 -38.662109 21.878668 99.386559 -0.200681 -3.157064 -73.872215 -54.969494 51.765865 -46.022121 19.595537 26.936312 -8.196004 -5.244253 0.489953 8.549334 -1.048658 -9.376264 -77.315331 -1.427531 7.951281 99.964996 -1.993651 4.663193 2.572016 16.190182 14.399762 
-0.414398 53.191830 -1.493654 -37.412106 35.742188 -155.306793 58.862934 -7.126562 -10.365531 -18.339846 -4.228516 -1.445313 51.063168 8.107644 2.471410 -60.566410 -15.605468 0.947265 2.000000 -2.000000 0.000000 -9.667968 -46.357414 -33.434795 -69.218575 -1.268380 -2.680569 66.485390 34.367794 26.915018 -2.000000 2.000000 0.000000 41.357422 -40.058590 25.371094 98.859215 -0.181183 -3.155940 -73.754906 -53.098183 51.493587 -44.899208 20.796671 27.421858 -8.886440 -5.240619 0.547251 9.001463 -1.324126 -9.306751 -76.512184 -0.507712 7.103786 99.271835 -1.952758 4.686548 3.113840 16.131775 13.890985 
-0.297248 53.207596 -1.856607 -36.806641 35.966801 -155.521606 58.393215 -6.246752 -11.274693 -18.339844 -4.404297 -1.836687 51.063168 8.107644 2.471410 -60.644531 -16.142576 3.857421 2.000000 -2.000000 0.000000 -11.806641 -44.267578 -33.317364 -69.042030 -1.227686 -2.653602 66.654617 34.298786 27.302458 -2.000000 2.000000 0.000000 41.445313 -42.890625 27.333984 99.386833 -0.190369 -3.166248 -72.551140 -51.567055 52.175507 -44.666355 22.185444 27.603334 -7.833347 -5.241375 0.508091 8.403566 -1.329350 -9.282165 -75.743004 0.212995 6.604655 99.278030 -1.768846 4.713449 2.918964 15.950644 13.628147 
